<svg width="817" height="700" viewBox="0 0 817 700" fill="none" xmlns="http://www.w3.org/2000/svg">
<g clip-path="url(#clip0)">
<path fill-rule="evenodd" clip-rule="evenodd" d="M172.796 650C139.954 650 74.2688 649.014 85.2162 662.014C96.1637 675.014 171 687 260 668C349 649 509.807 667.807 539 674C568.193 680.193 705.573 676 701.923 663C698.274 650 608.385 644 497.571 644C386.756 644 205.638 650 172.796 650Z" fill="#CD718E"/>
<path fill-rule="evenodd" clip-rule="evenodd" d="M205 93C205 93 185.13 239.71 182.714 307.009C182.544 311.737 174 310 174 319C174 328 182.073 329.049 182 333C180 441 205 602 205 602C205 602 142 639 126 635C116 623 96 617 96 635C96 653 121 659 126 657C131 655 146 669 169 663C192 657 208 650 217 654C226 658 238 665 253 657C268 649 252 618 245 602C238 586 212 449 212 363C212 277 245 93 245 93H205Z" fill="#E1B2A1"/>
<mask id="mask0" mask-type="alpha" maskUnits="userSpaceOnUse" x="96" y="93" width="164" height="572">
<path fill-rule="evenodd" clip-rule="evenodd" d="M205 93C205 93 185.13 239.71 182.714 307.009C182.544 311.737 174 310 174 319C174 328 182.073 329.049 182 333C180 441 205 602 205 602C205 602 142 639 126 635C116 623 96 617 96 635C96 653 121 659 126 657C131 655 146 669 169 663C192 657 208 650 217 654C226 658 238 665 253 657C268 649 252 618 245 602C238 586 212 449 212 363C212 277 245 93 245 93H205Z" fill="white"/>
</mask>
<g mask="url(#mask0)">
<path fill-rule="evenodd" clip-rule="evenodd" d="M191 79H249C249 79 272 124 244 138C216 152 191 131 191 131V79Z" fill="#CC9B8A"/>
<path fill-rule="evenodd" clip-rule="evenodd" d="M159 222L183 248L202 340L154 370L159 222Z" fill="#CC9B8A"/>
<path fill-rule="evenodd" clip-rule="evenodd" d="M79.9326 626C83.9326 636 106.933 649 125.933 649C133.933 654 153.933 662 174.933 651C195.933 640 213 626 213 626C213 626 232 632 240 626C248 620 245 601 245 601C245 601 258.13 596.15 259 597C271.761 609.469 258.081 622.879 274.933 626C301.933 631 290.933 660 266.933 667C242.933 674 157.933 684 120.933 674C83.9326 664 75.9326 616 79.9326 626Z" fill="#CC9B8A"/>
</g>
<path fill-rule="evenodd" clip-rule="evenodd" d="M189.952 462.478C189.952 462.478 184.249 474.268 185.293 474.778C186.337 475.288 193.657 464.288 193.657 464.288L189.952 462.478Z" fill="#9D796C"/>
<path fill-rule="evenodd" clip-rule="evenodd" d="M192.952 189.754C192.952 189.754 187.249 201.544 188.293 202.054C189.337 202.564 196.657 191.564 196.657 191.564L192.952 189.754Z" fill="#9D796C"/>
<path fill-rule="evenodd" clip-rule="evenodd" d="M202.761 338.571C202.761 338.571 208.54 350.324 209.585 349.815C210.629 349.307 206.468 336.766 206.468 336.766L202.761 338.571Z" fill="#9D796C"/>
<path fill-rule="evenodd" clip-rule="evenodd" d="M206.525 494.557C206.525 494.557 205.37 510.74 206.525 510.862C207.681 510.985 210.626 494.99 210.626 494.99L206.525 494.557Z" fill="#9D796C"/>
<path fill-rule="evenodd" clip-rule="evenodd" d="M217.144 229.255C217.144 229.255 225.961 242.875 226.957 242.278C227.953 241.68 220.68 227.134 220.68 227.134L217.144 229.255Z" fill="#9D796C"/>
<path fill-rule="evenodd" clip-rule="evenodd" d="M186.525 355.557C186.525 355.557 185.37 371.74 186.525 371.862C187.681 371.985 190.626 355.99 190.626 355.99L186.525 355.557Z" fill="#9D796C"/>
<path fill-rule="evenodd" clip-rule="evenodd" d="M232.925 576.624C232.925 576.624 240.77 590.826 241.805 590.299C242.841 589.773 236.599 574.755 236.599 574.755L232.925 576.624Z" fill="#9D796C"/>
<path fill-rule="evenodd" clip-rule="evenodd" d="M232.925 135.881C232.925 135.881 240.77 150.083 241.805 149.556C242.841 149.029 236.599 134.012 236.599 134.012L232.925 135.881Z" fill="#9D796C"/>
<path fill-rule="evenodd" clip-rule="evenodd" d="M212.925 437.624C212.925 437.624 220.77 451.826 221.805 451.299C222.841 450.773 216.599 435.755 216.599 435.755L212.925 437.624Z" fill="#9D796C"/>
<path fill-rule="evenodd" clip-rule="evenodd" d="M218.892 165.305C218.892 165.305 226.738 179.506 227.773 178.98C228.809 178.453 222.567 163.435 222.567 163.435L218.892 165.305Z" fill="#9D796C"/>
<path fill-rule="evenodd" clip-rule="evenodd" d="M209.267 570.763C209.267 570.763 208.107 581.247 209.267 581.309C210.428 581.37 213.385 570.982 213.385 570.982L209.267 570.763Z" fill="#9D796C"/>
<path fill-rule="evenodd" clip-rule="evenodd" d="M201.267 223.763C201.267 223.763 200.107 234.247 201.267 234.309C202.428 234.37 205.385 223.982 205.385 223.982L201.267 223.763Z" fill="#9D796C"/>
<path fill-rule="evenodd" clip-rule="evenodd" d="M189.267 431.763C189.267 431.763 188.107 442.247 189.267 442.309C190.428 442.37 193.385 431.982 193.385 431.982L189.267 431.763Z" fill="#9D796C"/>
<path fill-rule="evenodd" clip-rule="evenodd" d="M197.904 154.761C197.904 154.761 192.559 160.235 193.195 160.788C193.831 161.341 200.16 156.724 200.16 156.724L197.904 154.761Z" fill="#9D796C"/>
<path fill-rule="evenodd" clip-rule="evenodd" d="M205.204 549.773C205.204 549.773 199.474 556.293 200.227 556.882C200.98 557.471 207.876 551.864 207.876 551.864L205.204 549.773Z" fill="#9D796C"/>
<path fill-rule="evenodd" clip-rule="evenodd" d="M207.768 277.978C207.768 277.978 208.627 286.616 209.572 286.467C210.516 286.318 211.119 277.45 211.119 277.45L207.768 277.978Z" fill="#9D796C"/>
<path fill-rule="evenodd" clip-rule="evenodd" d="M185.204 410.773C185.204 410.773 179.474 417.293 180.227 417.882C180.98 418.471 187.876 412.864 187.876 412.864L185.204 410.773Z" fill="#9D796C"/>
<path fill-rule="evenodd" clip-rule="evenodd" d="M199.077 127.826C199.077 127.826 190.551 136.132 191.872 137.058C193.193 137.985 203.764 131.115 203.764 131.115L199.077 127.826Z" fill="#9D796C"/>
<path fill-rule="evenodd" clip-rule="evenodd" d="M194.636 526.472C194.636 526.472 189.507 536.084 190.182 536.475C190.857 536.865 197.032 527.858 197.032 527.858L194.636 526.472Z" fill="#9D796C"/>
<path fill-rule="evenodd" clip-rule="evenodd" d="M197.636 251.472C197.636 251.472 192.507 261.084 193.182 261.475C193.857 261.865 200.032 252.858 200.032 252.858L197.636 251.472Z" fill="#9D796C"/>
<path fill-rule="evenodd" clip-rule="evenodd" d="M211.349 471.654C211.349 471.654 216.111 481.453 216.824 481.136C217.537 480.819 213.879 470.529 213.879 470.529L211.349 471.654Z" fill="#9D796C"/>
<path fill-rule="evenodd" clip-rule="evenodd" d="M217.317 199.334C217.317 199.334 222.079 209.133 222.792 208.816C223.505 208.499 219.847 198.209 219.847 198.209L217.317 199.334Z" fill="#9D796C"/>
<path fill-rule="evenodd" clip-rule="evenodd" d="M205.367 593.103C205.367 593.103 202.692 599.712 203.367 600.103C204.042 600.493 207.367 595.103 207.367 595.103L205.367 593.103Z" fill="#9D796C"/>
<path fill-rule="evenodd" clip-rule="evenodd" d="M203.367 448.103C203.367 448.103 200.692 454.712 201.367 455.103C202.042 455.493 205.367 450.103 205.367 450.103L203.367 448.103Z" fill="#9D796C"/>
<path fill-rule="evenodd" clip-rule="evenodd" d="M209.335 175.783C209.335 175.783 206.659 182.393 207.335 182.783C208.01 183.174 211.335 177.783 211.335 177.783L209.335 175.783Z" fill="#9D796C"/>
<path fill-rule="evenodd" clip-rule="evenodd" d="M231.122 558.339C231.122 558.339 237.582 561.357 238.007 560.703C238.433 560.049 233.223 556.446 233.223 556.446L231.122 558.339Z" fill="#9D796C"/>
<path fill-rule="evenodd" clip-rule="evenodd" d="M210.122 315.275C210.122 315.275 216.582 318.293 217.007 317.639C217.433 316.985 212.223 313.382 212.223 313.382L210.122 315.275Z" fill="#9D796C"/>
<path fill-rule="evenodd" clip-rule="evenodd" d="M211.122 419.339C211.122 419.339 217.582 422.357 218.007 421.703C218.433 421.049 213.223 417.446 213.223 417.446L211.122 419.339Z" fill="#9D796C"/>
<path fill-rule="evenodd" clip-rule="evenodd" d="M217.089 147.019C217.089 147.019 223.55 150.037 223.975 149.383C224.4 148.729 219.191 145.127 219.191 145.127L217.089 147.019Z" fill="#9D796C"/>
<path fill-rule="evenodd" clip-rule="evenodd" d="M218.908 527.797C218.908 527.797 225.947 540.366 226.636 540C227.325 539.634 221.354 526.499 221.354 526.499L218.908 527.797Z" fill="#9D796C"/>
<path fill-rule="evenodd" clip-rule="evenodd" d="M198.908 388.797C198.908 388.797 205.947 401.366 206.636 401C207.325 400.634 201.354 387.499 201.354 387.499L198.908 388.797Z" fill="#9D796C"/>
<path fill-rule="evenodd" clip-rule="evenodd" d="M223.636 504.541C223.636 504.541 226.611 511.919 227.16 511.559C227.71 511.2 225.587 503.265 225.587 503.265L223.636 504.541Z" fill="#9D796C"/>
<path fill-rule="evenodd" clip-rule="evenodd" d="M203.636 365.541C203.636 365.541 206.611 372.919 207.16 372.559C207.71 372.2 205.587 364.265 205.587 364.265L203.636 365.541Z" fill="#9D796C"/>
<rect x="2.55615" y="167.994" width="163.503" height="198.114" transform="rotate(-12 2.55615 167.994)" fill="white"/>
<rect x="33.3023" y="204.472" width="18" height="18" transform="rotate(-12 33.3023 204.472)" stroke="#CD718E" stroke-width="4"/>
<rect x="68.0999" y="195.031" width="83" height="22" transform="rotate(-12 68.0999 195.031)" fill="#EFE2E2"/>
<rect x="41.2029" y="241.641" width="18" height="18" transform="rotate(-12 41.2029 241.641)" stroke="#CD718E" stroke-width="4"/>
<rect x="76.0005" y="232.2" width="83" height="22" transform="rotate(-12 76.0005 232.2)" fill="#EFE2E2"/>
<rect x="49.1036" y="278.811" width="18" height="18" transform="rotate(-12 49.1036 278.811)" stroke="#CD718E" stroke-width="4"/>
<rect x="83.9011" y="269.37" width="83" height="22" transform="rotate(-12 83.9011 269.37)" fill="#EFE2E2"/>
<rect x="57.0042" y="315.981" width="18" height="18" transform="rotate(-12 57.0042 315.981)" stroke="#CD718E" stroke-width="4"/>
<rect x="91.8018" y="306.54" width="83" height="22" transform="rotate(-12 91.8018 306.54)" fill="#EFE2E2"/>
<path fill-rule="evenodd" clip-rule="evenodd" d="M591 107C591 107 600.411 231.267 604.89 298.448C605.136 302.143 610 300 613 309C616 318 606.722 320.41 606.977 324C614.626 431.747 591 599 591 599C591 599 655.231 643.832 671 639C684 639 695 628.622 699 635C703 641.378 696 661.565 676.702 654.918C668 661.564 657.357 667.948 634.075 663.16C610.792 658.372 592.778 654.534 584 659C575.222 663.466 565.274 668.769 549.876 661.565C534.478 654.361 539 632.948 554.986 606.221C570.972 579.494 574.501 450.186 570 364.304C565.499 278.422 539 112 539 112L591 107Z" fill="#E1B2A1"/>
<mask id="mask1" mask-type="alpha" maskUnits="userSpaceOnUse" x="512" y="102" width="190" height="569">
<path fill-rule="evenodd" clip-rule="evenodd" d="M591 107C591 107 600.411 231.267 604.89 298.448C605.136 302.143 610 300 613 309C616 318 606.722 320.41 606.977 324C614.626 431.747 591 599 591 599C591 599 655.231 643.832 671 639C684 639 695 628.622 699 635C703 641.378 696 661.565 676.702 654.918C668 661.564 657.357 667.948 634.075 663.16C610.792 658.372 592.778 654.534 584 659C575.222 663.466 565.274 668.769 549.876 661.565C534.478 654.361 539 632.948 554.986 606.221C570.972 579.494 574.501 450.186 570 364.304C565.499 278.422 539 112 539 112L591 107Z" fill="white"/>
</mask>
<g mask="url(#mask1)">
<path fill-rule="evenodd" clip-rule="evenodd" d="M532 90H590C590 90 622 109 597 137C572 165 532 154 532 154V90Z" fill="#CC9B8A"/>
<path fill-rule="evenodd" clip-rule="evenodd" d="M709.77 626C705.77 636 682.77 649 663.77 649C655.77 654 635.77 662 614.77 651C593.77 640 576.702 626 576.702 626C576.702 626 557.702 632 549.702 626C541.702 620 544.702 601 544.702 601C544.702 601 531.572 596.15 530.702 597C517.941 609.469 531.621 622.879 514.77 626C487.77 631 498.77 660 522.77 667C546.77 674 631.77 684 668.77 674C705.77 664 713.77 616 709.77 626Z" fill="#CC9B8A"/>
</g>
<path fill-rule="evenodd" clip-rule="evenodd" d="M601.894 460.594C601.894 460.594 608.406 471.958 607.4 472.539C606.395 473.121 598.325 462.658 598.325 462.658L601.894 460.594Z" fill="#9D796C"/>
<path fill-rule="evenodd" clip-rule="evenodd" d="M597.766 193.134C597.766 193.134 604.278 204.498 603.272 205.079C602.266 205.661 594.197 195.198 594.197 195.198L597.766 193.134Z" fill="#9D796C"/>
<path fill-rule="evenodd" clip-rule="evenodd" d="M574.576 341.29C574.576 341.29 569.631 353.418 568.553 352.983C567.476 352.549 570.753 339.748 570.753 339.748L574.576 341.29Z" fill="#9D796C"/>
<path fill-rule="evenodd" clip-rule="evenodd" d="M587.6 493.751C587.6 493.751 589.881 509.814 588.737 510.017C587.593 510.219 583.54 494.469 583.54 494.469L587.6 493.751Z" fill="#9D796C"/>
<path fill-rule="evenodd" clip-rule="evenodd" d="M562.567 244.108C562.567 244.108 554.721 258.31 553.686 257.783C552.65 257.256 558.892 242.238 558.892 242.238L562.567 244.108Z" fill="#9D796C"/>
<path fill-rule="evenodd" clip-rule="evenodd" d="M604.209 362.487C604.209 362.487 613.535 375.764 612.607 376.464C611.68 377.164 600.918 364.971 600.918 364.971L604.209 362.487Z" fill="#9D796C"/>
<path fill-rule="evenodd" clip-rule="evenodd" d="M566.99 577.46C566.99 577.46 560.154 592.175 559.084 591.721C558.015 591.268 563.193 575.851 563.193 575.851L566.99 577.46Z" fill="#9D796C"/>
<path fill-rule="evenodd" clip-rule="evenodd" d="M602 258C602 258 611.084 269.583 610 270C608.916 270.417 597.344 259.505 597.344 259.505L602 258Z" fill="#9D796C"/>
<path fill-rule="evenodd" clip-rule="evenodd" d="M577.245 437.404C577.245 437.404 570.409 452.118 569.339 451.665C568.27 451.212 573.448 435.795 573.448 435.795L577.245 437.404Z" fill="#9D796C"/>
<path fill-rule="evenodd" clip-rule="evenodd" d="M552.295 166.164C552.295 166.164 545.46 180.878 544.39 180.425C543.321 179.972 548.499 164.555 548.499 164.555L552.295 166.164Z" fill="#9D796C"/>
<path fill-rule="evenodd" clip-rule="evenodd" d="M590.18 569.963C590.18 569.963 592.069 580.341 590.916 580.483C589.763 580.625 586.088 570.468 586.088 570.468L590.18 569.963Z" fill="#9D796C"/>
<path fill-rule="evenodd" clip-rule="evenodd" d="M573.955 223.25C573.955 223.25 575.844 233.628 574.691 233.77C573.538 233.913 569.863 223.755 569.863 223.755L573.955 223.25Z" fill="#9D796C"/>
<path fill-rule="evenodd" clip-rule="evenodd" d="M600.435 429.907C600.435 429.907 602.324 440.284 601.171 440.427C600.018 440.569 596.343 430.412 596.343 430.412L600.435 429.907Z" fill="#9D796C"/>
<path fill-rule="evenodd" clip-rule="evenodd" d="M583.021 169.88C583.021 169.88 588.735 174.968 588.14 175.564C587.544 176.16 580.908 171.996 580.908 171.996L583.021 169.88Z" fill="#9D796C"/>
<path fill-rule="evenodd" clip-rule="evenodd" d="M592.77 548.741C592.77 548.741 598.941 554.845 598.231 555.485C597.521 556.125 590.25 551.013 590.25 551.013L592.77 548.741Z" fill="#9D796C"/>
<path fill-rule="evenodd" clip-rule="evenodd" d="M571.253 277.787C571.253 277.787 570.997 286.463 570.045 286.38C569.093 286.298 567.873 277.493 567.873 277.493L571.253 277.787Z" fill="#9D796C"/>
<path fill-rule="evenodd" clip-rule="evenodd" d="M608.157 408.884C608.157 408.884 614.329 414.987 613.619 415.628C612.909 416.268 605.637 411.155 605.637 411.155L608.157 408.884Z" fill="#9D796C"/>
<path fill-rule="evenodd" clip-rule="evenodd" d="M586.464 323.908C586.464 323.908 592.635 330.012 591.925 330.652C591.215 331.292 583.944 326.18 583.944 326.18L586.464 323.908Z" fill="#9D796C"/>
<path fill-rule="evenodd" clip-rule="evenodd" d="M596.508 283.955C596.508 283.955 597.319 293.991 596.453 294.395C595.587 294.8 593.346 284.034 593.346 284.034L596.508 283.955Z" fill="#9D796C"/>
<path fill-rule="evenodd" clip-rule="evenodd" d="M591.755 235.044C591.755 235.044 597.926 241.148 597.216 241.788C596.506 242.429 589.235 237.316 589.235 237.316L591.755 235.044Z" fill="#9D796C"/>
<path fill-rule="evenodd" clip-rule="evenodd" d="M593.965 150.623C593.965 150.623 603.049 158.314 601.796 159.33C600.543 160.347 589.518 154.231 589.518 154.231L593.965 150.623Z" fill="#9D796C"/>
<path fill-rule="evenodd" clip-rule="evenodd" d="M599.687 524.759C599.687 524.759 605.474 533.99 604.827 534.427C604.181 534.863 597.392 526.309 597.392 526.309L599.687 524.759Z" fill="#9D796C"/>
<path fill-rule="evenodd" clip-rule="evenodd" d="M609.329 315.717C609.329 315.717 615.115 324.948 614.469 325.384C613.823 325.821 607.034 317.266 607.034 317.266L609.329 315.717Z" fill="#9D796C"/>
<path fill-rule="evenodd" clip-rule="evenodd" d="M581.19 471.24C581.19 471.24 577.123 481.348 576.39 481.081C575.657 480.815 578.587 470.295 578.587 470.295L581.19 471.24Z" fill="#9D796C"/>
<path fill-rule="evenodd" clip-rule="evenodd" d="M556.241 200C556.241 200 552.174 210.108 551.441 209.841C550.707 209.575 553.638 199.055 553.638 199.055L556.241 200Z" fill="#9D796C"/>
<path fill-rule="evenodd" clip-rule="evenodd" d="M582.63 593.976C582.63 593.976 585.759 600.383 585.113 600.82C584.466 601.256 580.774 596.111 580.774 596.111L582.63 593.976Z" fill="#9D796C"/>
<path fill-rule="evenodd" clip-rule="evenodd" d="M587.51 447.19C587.51 447.19 590.64 453.597 589.993 454.033C589.347 454.47 585.654 449.325 585.654 449.325L587.51 447.19Z" fill="#9D796C"/>
<path fill-rule="evenodd" clip-rule="evenodd" d="M562.561 175.95C562.561 175.95 565.691 182.357 565.044 182.793C564.398 183.23 560.705 178.085 560.705 178.085L562.561 175.95Z" fill="#9D796C"/>
<path fill-rule="evenodd" clip-rule="evenodd" d="M568.513 559.094C568.513 559.094 562.278 562.554 561.809 561.932C561.339 561.309 566.284 557.352 566.284 557.352L568.513 559.094Z" fill="#9D796C"/>
<path fill-rule="evenodd" clip-rule="evenodd" d="M571.506 315.157C571.506 315.157 565.272 318.618 564.802 317.995C564.332 317.372 569.277 313.416 569.277 313.416L571.506 315.157Z" fill="#9D796C"/>
<path fill-rule="evenodd" clip-rule="evenodd" d="M574.768 415.037C574.768 415.037 568.534 418.498 568.064 417.875C567.594 417.253 572.539 413.296 572.539 413.296L574.768 415.037Z" fill="#9D796C"/>
<path fill-rule="evenodd" clip-rule="evenodd" d="M572.336 148.803C572.336 148.803 568.561 154.852 567.848 154.535C567.135 154.219 569.542 148.36 569.542 148.36L572.336 148.803Z" fill="#9D796C"/>
<path fill-rule="evenodd" clip-rule="evenodd" d="M577.565 527.774C577.565 527.774 571.421 540.803 570.708 540.486C569.995 540.17 575.035 526.65 575.035 526.65L577.565 527.774Z" fill="#9D796C"/>
<path fill-rule="evenodd" clip-rule="evenodd" d="M587.821 387.718C587.821 387.718 581.676 400.747 580.963 400.43C580.25 400.113 585.291 386.593 585.291 386.593L587.821 387.718Z" fill="#9D796C"/>
<path fill-rule="evenodd" clip-rule="evenodd" d="M571.227 504.905C571.227 504.905 568.774 512.471 568.201 512.151C567.628 511.831 569.192 503.768 569.192 503.768L571.227 504.905Z" fill="#9D796C"/>
<path fill-rule="evenodd" clip-rule="evenodd" d="M572.941 369.777C572.941 369.777 570.489 377.344 569.916 377.024C569.342 376.704 570.907 368.641 570.907 368.641L572.941 369.777Z" fill="#9D796C"/>
<path fill-rule="evenodd" clip-rule="evenodd" d="M106.629 -37.4697C87.7529 -17.8003 80.8159 120.996 78.1302 129.48C75.4446 137.964 67.0444 146.39 76.2844 177.162C85.5245 207.934 104.148 229.945 106.629 226.53C109.11 223.115 83.3825 188.083 87.3134 187.46C91.2442 186.837 112.481 232.689 119.983 235.53C127.484 238.372 92.587 182.595 96.5179 181.973C100.449 181.35 124.087 236.464 129.983 235.53C135.879 234.596 101.325 174.16 105.051 178.607C108.777 183.053 130.793 225.654 137.983 226.53C145.173 227.406 106.91 171.261 108.661 156.88C110.413 142.5 119.983 143.53 119.983 143.53C119.983 143.53 119.983 143.53 126.854 142.53C122.983 133.53 107.874 132.828 106.629 124.966C105.384 117.105 119.177 -9.13908 149.983 -31.4697C149.983 -31.4697 125.505 -57.1391 106.629 -37.4697Z" fill="#E1B2A1"/>
<path fill-rule="evenodd" clip-rule="evenodd" d="M197 0L184 116C184 116 220.396 127 251.466 130C282.536 133 321.595 130 321.595 130C321.595 130 342.013 70.5 399.714 72.5C457.415 74.5 474.282 136 474.282 136C474.282 136 505.352 145 537.309 145C569.267 145 603 130 603 130L590 0H197Z" fill="white"/>
<mask id="mask2" mask-type="alpha" maskUnits="userSpaceOnUse" x="184" y="0" width="419" height="145">
<path fill-rule="evenodd" clip-rule="evenodd" d="M197 0L184 116C184 116 220.396 127 251.466 130C282.536 133 321.595 130 321.595 130C321.595 130 342.013 70.5 399.714 72.5C457.415 74.5 474.282 136 474.282 136C474.282 136 505.352 145 537.309 145C569.267 145 603 130 603 130L590 0H197Z" fill="white"/>
</mask>
<g mask="url(#mask2)">
<path fill-rule="evenodd" clip-rule="evenodd" d="M196.541 54C191.541 54 178.541 23 186.541 20C194.541 17 196.541 26 196.541 26C196.541 26 204.541 14 210.541 20C216.541 26 201.541 54 196.541 54Z" fill="#FFB7CD"/>
<path fill-rule="evenodd" clip-rule="evenodd" d="M240.541 99C235.541 99 222.541 68 230.541 65C238.541 62 240.541 71 240.541 71C240.541 71 248.541 59 254.541 65C260.541 71 245.541 99 240.541 99Z" fill="#FFB7CD"/>
<path fill-rule="evenodd" clip-rule="evenodd" d="M268.541 36C263.541 36 250.541 5 258.541 2C266.541 -1 268.541 8 268.541 8C268.541 8 276.541 -4 282.541 2C288.541 8 273.541 36 268.541 36Z" fill="#FFB7CD"/>
<path fill-rule="evenodd" clip-rule="evenodd" d="M340.541 63C335.541 63 322.541 32 330.541 29C338.541 26 340.541 35 340.541 35C340.541 35 348.541 23 354.541 29C360.541 35 345.541 63 340.541 63Z" fill="#FFB7CD"/>
<path fill-rule="evenodd" clip-rule="evenodd" d="M488.541 86C483.541 86 470.541 55 478.541 52C486.541 49 488.541 58 488.541 58C488.541 58 496.541 46 502.541 52C508.541 58 493.541 86 488.541 86Z" fill="#FFB7CD"/>
<path fill-rule="evenodd" clip-rule="evenodd" d="M533.541 18C528.541 18 515.541 -13 523.541 -16C531.541 -19 533.541 -10 533.541 -10C533.541 -10 541.541 -22 547.541 -16C553.541 -10 538.541 18 533.541 18Z" fill="#FFB7CD"/>
<path fill-rule="evenodd" clip-rule="evenodd" d="M611.541 62C606.541 62 593.541 31 601.541 28C609.541 25 611.541 34 611.541 34C611.541 34 619.541 22 625.541 28C631.541 34 616.541 62 611.541 62Z" fill="#FFB7CD"/>
<path fill-rule="evenodd" clip-rule="evenodd" d="M420.081 27.1964C416.859 27.1964 408.483 7.22172 413.637 5.28869C418.792 3.35566 420.081 9.15475 420.081 9.15475C420.081 9.15475 425.235 1.42263 429.102 5.28869C432.968 9.15475 423.302 27.1964 420.081 27.1964Z" fill="#FFB7CD"/>
<path fill-rule="evenodd" clip-rule="evenodd" d="M489.081 144.196C485.859 144.196 477.483 124.222 482.637 122.289C487.792 120.356 489.081 126.155 489.081 126.155C489.081 126.155 494.235 118.423 498.102 122.289C501.968 126.155 492.302 144.196 489.081 144.196Z" fill="#FFB7CD"/>
<path fill-rule="evenodd" clip-rule="evenodd" d="M307.081 132.196C303.859 132.196 295.483 112.222 300.637 110.289C305.792 108.356 307.081 114.155 307.081 114.155C307.081 114.155 312.235 106.423 316.102 110.289C319.968 114.155 310.302 132.196 307.081 132.196Z" fill="#FFB7CD"/>
<path fill-rule="evenodd" clip-rule="evenodd" d="M557.081 120.196C553.859 120.196 545.483 100.222 550.637 98.2887C555.792 96.3557 557.081 102.155 557.081 102.155C557.081 102.155 562.235 94.4226 566.102 98.2887C569.968 102.155 560.302 120.196 557.081 120.196Z" fill="#FFB7CD"/>
<path fill-rule="evenodd" clip-rule="evenodd" d="M386.5 236.443C442.557 236.443 503 213.443 503 143.443C503 94.9691 482.639 61.5291 449 45.4429C434.061 38.2993 430.5 58.4429 402.5 58.4429C367.5 58.4429 367.905 37.7429 358 41.4429C320.231 55.5508 302 92.939 302 138.443C302 195.88 330.443 236.443 386.5 236.443Z" fill="black" fill-opacity="0.1"/>
</g>
<path fill-rule="evenodd" clip-rule="evenodd" d="M757.909 97.1758C760.447 98.201 763.34 96.9621 764.372 94.4085C764.429 94.2668 764.48 94.1241 764.523 93.9806L800.468 108.503C802.772 109.434 803.886 112.057 802.955 114.361L780.853 169.065C779.922 171.37 777.299 172.483 774.995 171.552L739.05 157.029C739.118 156.896 739.181 156.758 739.238 156.616C740.27 154.063 739.049 151.162 736.512 150.136C733.974 149.111 731.081 150.35 730.049 152.904C729.992 153.045 729.942 153.188 729.898 153.332L614.592 106.745C612.288 105.814 611.174 103.191 612.105 100.887L634.207 46.1829C635.138 43.8786 637.761 42.7653 640.065 43.6963L755.371 90.2831C755.303 90.4165 755.24 90.5542 755.183 90.6959C754.151 93.2494 755.372 96.1505 757.909 97.1758Z" fill="#663244"/>
<path fill-rule="evenodd" clip-rule="evenodd" d="M760.598 112.168C763.015 113.453 766.022 112.523 767.315 110.092C767.387 109.957 767.452 109.82 767.51 109.682L801.74 127.882C803.934 129.049 804.767 131.774 803.6 133.968L775.902 186.062C774.735 188.257 772.01 189.09 769.816 187.923L735.586 169.722C735.668 169.597 735.745 169.467 735.817 169.332C737.109 166.9 736.199 163.887 733.782 162.602C731.366 161.317 728.359 162.247 727.066 164.679C726.994 164.814 726.929 164.95 726.871 165.089L617.066 106.704C614.871 105.537 614.038 102.813 615.205 100.618L642.904 48.5244C644.071 46.33 646.795 45.497 648.99 46.6638L758.795 105.048C758.713 105.174 758.636 105.304 758.564 105.439C757.271 107.871 758.182 110.883 760.598 112.168Z" fill="#7F4156"/>
<path fill-rule="evenodd" clip-rule="evenodd" d="M762.386 142.909C762.334 142.882 762.249 142.848 762.147 142.81C761.784 141.395 761.317 139.84 761.098 138.75C761.002 138.267 760.76 137.951 760.312 137.72L760.259 137.692C760.072 137.597 759.907 137.561 759.829 137.754L758.697 142.045C758.014 141.999 757.463 142.068 757.302 142.361C757.289 142.384 757.279 142.408 757.272 142.433C757.255 142.452 757.24 142.474 757.228 142.496C757.067 142.79 757.316 143.272 757.738 143.794L754.7 147.103C754.58 147.274 754.702 147.388 754.887 147.483C754.887 147.483 754.941 147.51 754.941 147.511C755.389 147.742 755.795 147.759 756.261 147.566C757.317 147.132 758.909 146.637 760.322 146.137C760.411 146.198 760.488 146.247 760.54 146.274L766.353 149.268L759.083 157.539C758.769 158.001 759.029 158.27 759.439 158.481L759.557 158.542C759.822 158.679 760.166 158.619 760.437 158.389L771.908 152.129L777.458 154.989C778.029 155.282 780.509 155.627 780.997 154.739C781.009 154.716 781.02 154.693 781.03 154.67C781.044 154.649 781.058 154.627 781.07 154.605C781.558 153.716 779.874 151.917 779.305 151.624L773.754 148.764L772.692 136.048C772.737 135.702 772.596 135.394 772.33 135.256L772.213 135.196C771.803 134.985 771.427 134.925 771.207 135.437L768.199 145.903L762.386 142.909Z" fill="white"/>
<path fill-rule="evenodd" clip-rule="evenodd" d="M615.942 -97.5486C640.812 -86.3826 699.238 39.7084 704.906 46.5688C710.574 53.4292 721.519 58.0947 724.479 90.0875C727.44 122.08 718.418 149.465 714.838 147.228C711.258 144.991 721.989 102.872 718.111 103.767C714.233 104.662 713.838 148 703 154C697.2 157.211 703.992 143.348 707 128C709.613 114.667 709.324 101.711 707.521 102.127C703.643 103.022 706.828 146 692 153C684.377 156.599 692.601 147.057 696 131C699.212 115.823 696.458 100.085 695 103C692 109 693 145.228 681 150C675.083 152.353 681.461 140.746 684 125C686.61 108.809 685.451 90.3197 684 82C681.138 65.5893 674 57 674 57C674 57 671 56 663 53C670 43 674.79 49.7557 673 42C671.209 34.2443 614.92 -66.5803 577.992 -75.7448C577.992 -75.7448 591.072 -108.715 615.942 -97.5486Z" fill="#E1B2A1"/>
</g>
<defs>
<clipPath id="clip0">
<rect width="817" height="700" fill="white"/>
</clipPath>
</defs>
</svg>
